<svg xmlns="http://www.w3.org/2000/svg"
 viewBox="0 0 5760 320"
 preserveAspectRatio="none">

  <path fill="#0091ff"
        d="M 0 159.528 L 60 149.528 C 120 139.528 240 119.528 360 129.528 C 480 139.528 600 179.528 720 179.528 C 840 179.528 960 139.528 1080 129.528 C 1200 119.528 1320 139.528 1440 159.528 C 1560 179.528 1680 199.528 1800 189.528 C 1920 179.528 2040 139.528 2160 129.528 C 2280 119.528 2400 139.528 2520 159.528 C 2640 179.528 2760 169.528 2880 159.528 L 2880 -0.472 L 0 -0.472 L 0 159.528 Z M 2879.98 159.513 L 2939.98 149.513 C 2999.98 139.513 3119.98 119.513 3239.98 129.513 C 3359.98 139.513 3479.98 179.513 3599.98 179.513 C 3719.98 179.513 3839.98 139.513 3959.98 129.513 C 4079.98 119.513 4199.98 139.513 4319.98 159.513 C 4439.98 179.513 4559.98 199.513 4679.98 189.513 C 4799.98 179.513 4919.98 139.513 5039.98 129.513 C 5159.98 119.513 5279.98 139.513 5399.98 159.513 C 5519.98 179.513 5639.98 169.513 5759.98 159.513 L 5759.98 -0.487 L 2879.98 -0.487 L 2879.98 159.513 Z"/>
</svg>
